ply
format ascii 1.0
comment Created by Open Asset Import Library - http://assimp.sf.net (v5.0.1588609223)
element vertex 90
property float x
property float y
property float z
property float nx
property float ny
property float nz
property float s
property float t
element face 30
property list uchar int vertex_index
end_header
5 0 0 0 0 1 1 0.5
4.890738 1.0395581 0 0 0 1 0.98907399 0.39604399
0 0 0 0 0 1 0.5 0.5
4.890738 1.0395581 0 0 0 1 0.98907399 0.39604399
4.5677271 2.0336831 0 0 0 1 0.95677298 0.29663199
0 0 0 0 0 1 0.5 0.5
4.5677271 2.0336831 0 0 0 1 0.95677298 0.29663199
4.045085 2.938926 0 0 0 1 0.90450799 0.20610701
0 0 0 0 0 1 0.5 0.5
4.045085 2.938926 0 0 0 1 0.90450799 0.20610701
3.3456531 3.715724 0 0 0 1 0.83456498 0.128428
0 0 0 0 0 1 0.5 0.5
3.3456531 3.715724 0 0 0 1 0.83456498 0.128428
2.5 4.3301268 0 0 0 1 0.75 0.066987
0 0 0 0 0 1 0.5 0.5
2.5 4.3301268 0 0 0 1 0.75 0.066987
1.545085 4.7552829 0 0 0 1 0.65450799 0.024472
0 0 0 0 0 1 0.5 0.5
1.545085 4.7552829 0 0 0 1 0.65450799 0.024472
0.52264202 4.97261 0 0 0 1 0.55226398 0.0027389999
0 0 0 0 0 1 0.5 0.5
0.52264202 4.97261 0 0 0 1 0.55226398 0.0027389999
-0.52264202 4.97261 0 0 0 1 0.447736 0.0027389999
0 0 0 0 0 1 0.5 0.5
-0.52264202 4.97261 0 0 0 1 0.447736 0.0027389999
-1.545085 4.7552829 0 0 0 1 0.34549099 0.024472
0 0 0 0 0 1 0.5 0.5
-1.545085 4.7552829 0 0 0 1 0.34549099 0.024472
-2.5 4.3301268 0 0 0 1 0.25 0.066987
0 0 0 0 0 1 0.5 0.5
-2.5 4.3301268 0 0 0 1 0.25 0.066987
-3.3456531 3.715724 0 0 0 1 0.165435 0.128428
0 0 0 0 0 1 0.5 0.5
-3.3456531 3.715724 0 0 0 1 0.165435 0.128428
-4.045085 2.938926 0 0 0 1 0.095491998 0.20610701
0 0 0 0 0 1 0.5 0.5
-4.045085 2.938926 0 0 0 1 0.095491998 0.20610701
-4.5677271 2.0336831 0 0 0 1 0.043226998 0.29663199
0 0 0 0 0 1 0.5 0.5
-4.5677271 2.0336831 0 0 0 1 0.043226998 0.29663199
-4.890738 1.0395581 0 0 0 1 0.010926 0.39604399
0 0 0 0 0 1 0.5 0.5
-4.890738 1.0395581 0 0 0 1 0.010926 0.39604399
-5 0 0 0 0 1 0 0.5
0 0 0 0 0 1 0.5 0.5
-5 0 0 0 0 1 0 0.5
-4.890738 -1.0395581 0 0 0 1 0.010926 0.60395598
0 0 0 0 0 1 0.5 0.5
-4.890738 -1.0395581 0 0 0 1 0.010926 0.60395598
-4.5677271 -2.0336831 0 0 0 1 0.043226998 0.70336801
0 0 0 0 0 1 0.5 0.5
-4.5677271 -2.0336831 0 0 0 1 0.043226998 0.70336801
-4.045085 -2.938926 0 0 0 1 0.095491998 0.79389298
0 0 0 0 0 1 0.5 0.5
-4.045085 -2.938926 0 0 0 1 0.095491998 0.79389298
-3.3456531 -3.715724 0 0 0 1 0.165435 0.87157202
0 0 0 0 0 1 0.5 0.5
-3.3456531 -3.715724 0 0 0 1 0.165435 0.87157202
-2.5 -4.3301268 0 0 0 1 0.25 0.93301302
0 0 0 0 0 1 0.5 0.5
-2.5 -4.3301268 0 0 0 1 0.25 0.93301302
-1.545085 -4.7552829 0 0 0 1 0.34549099 0.975528
0 0 0 0 0 1 0.5 0.5
-1.545085 -4.7552829 0 0 0 1 0.34549099 0.975528
-0.52264202 -4.97261 0 0 0 1 0.447736 0.99726099
0 0 0 0 0 1 0.5 0.5
-0.52264202 -4.97261 0 0 0 1 0.447736 0.99726099
0.52264202 -4.97261 0 0 0 1 0.55226398 0.99726099
0 0 0 0 0 1 0.5 0.5
0.52264202 -4.97261 0 0 0 1 0.55226398 0.99726099
1.545085 -4.7552829 0 0 0 1 0.65450799 0.975528
0 0 0 0 0 1 0.5 0.5
1.545085 -4.7552829 0 0 0 1 0.65450799 0.975528
2.5 -4.3301268 0 0 0 1 0.75 0.93301302
0 0 0 0 0 1 0.5 0.5
2.5 -4.3301268 0 0 0 1 0.75 0.93301302
3.3456531 -3.715724 0 0 0 1 0.83456498 0.87157202
0 0 0 0 0 1 0.5 0.5
3.3456531 -3.715724 0 0 0 1 0.83456498 0.87157202
4.045085 -2.938926 0 0 0 1 0.90450799 0.79389298
0 0 0 0 0 1 0.5 0.5
4.045085 -2.938926 0 0 0 1 0.90450799 0.79389298
4.5677271 -2.0336831 0 0 0 1 0.95677298 0.70336801
0 0 0 0 0 1 0.5 0.5
4.5677271 -2.0336831 0 0 0 1 0.95677298 0.70336801
4.890738 -1.0395581 0 0 0 1 0.98907399 0.60395598
0 0 0 0 0 1 0.5 0.5
4.890738 -1.0395581 0 0 0 1 0.98907399 0.60395598
5 -0 0 0 0 1 1 0.5
0 0 0 0 0 1 0.5 0.5
3 0 1 2
3 3 4 5
3 6 7 8
3 9 10 11
3 12 13 14
3 15 16 17
3 18 19 20
3 21 22 23
3 24 25 26
3 27 28 29
3 30 31 32
3 33 34 35
3 36 37 38
3 39 40 41
3 42 43 44
3 45 46 47
3 48 49 50
3 51 52 53
3 54 55 56
3 57 58 59
3 60 61 62
3 63 64 65
3 66 67 68
3 69 70 71
3 72 73 74
3 75 76 77
3 78 79 80
3 81 82 83
3 84 85 86
3 87 88 89
